<?xml version="1.0" encoding="UTF-8"?>
<svg width="184px" height="184px" viewBox="0 0 184 184" version="1.1" xmlns="http://www.w3.org/2000/svg" xmlns:xlink="http://www.w3.org/1999/xlink">
    <!-- Generator: Sketch 63.1 (92452) - https://sketch.com -->
    <title>IL/ Navigation/ loader</title>
    <desc>Created with Sketch.</desc>
    <g id="IL/-Navigation/-loader" stroke="none" stroke-width="1" fill="none" fill-rule="evenodd">
        <g id="Group-3" transform="translate(31.000000, 18.000000)">
            <g id="Group-2" transform="translate(52.500000, 58.500000) rotate(-10.000000) translate(-52.500000, -58.500000) translate(9.000000, 7.000000)">
                <rect id="Combined-Shape" fill="#999999" x="0" y="0" width="87" height="103" rx="5"></rect>
                <rect id="Rectangle" fill="#545454" x="16" y="16" width="55" height="8" rx="2"></rect>
                <rect id="Rectangle" fill="#545454" x="16" y="63" width="55" height="8" rx="2"></rect>
                <rect id="Rectangle" fill="#545454" x="16" y="79" width="55" height="8" rx="2"></rect>
                <rect id="Rectangle" fill="#545454" x="16" y="32" width="16" height="23" rx="2"></rect>
                <rect id="Rectangle" fill="#545454" x="34" y="32" width="37" height="23" rx="2"></rect>
            </g>
            <path d="M89.525,74 C93.0187366,74 96.4065996,74.4532984 99.6329839,75.30429 L103.413778,96.7398648 C103.893294,99.4593363 102.077451,102.052628 99.3579796,102.532144 L99.3579796,102.532144 L50.0659086,111.223195 C51.2578864,90.465407 68.4685923,74 89.525,74 Z" id="Combined-Shape" fill="#222222" opacity="0.499753534"></path>
        </g>
        <g id="Oval-2" opacity="0.5" transform="translate(63.000000, 151.000000)" fill="#999999">
            <path d="M3.3015873,6.64864865 C5.12500362,6.64864865 6.6031746,5.16029795 6.6031746,3.32432432 C6.6031746,1.4883507 5.12500362,0 3.3015873,0 C1.47817098,0 1.08002496e-12,1.4883507 1.08002496e-12,3.32432432 C1.08002496e-12,5.16029795 1.47817098,6.64864865 3.3015873,6.64864865 Z M3.3015873,4.64864865 C2.5858248,4.64864865 2,4.05878945 2,3.32432432 C2,2.5898592 2.5858248,2 3.3015873,2 C4.0173498,2 4.6031746,2.5898592 4.6031746,3.32432432 C4.6031746,4.05878945 4.0173498,4.64864865 3.3015873,4.64864865 Z" id="Oval"></path>
        </g>
        <g id="Oval-Copy-8" opacity="0.8" transform="translate(168.000000, 92.000000)" fill="#999999">
            <path d="M3.3015873,6.64864865 C5.12500362,6.64864865 6.6031746,5.16029795 6.6031746,3.32432432 C6.6031746,1.4883507 5.12500362,1.42108547e-14 3.3015873,1.42108547e-14 C1.47817098,1.42108547e-14 1.08002496e-12,1.4883507 1.08002496e-12,3.32432432 C1.08002496e-12,5.16029795 1.47817098,6.64864865 3.3015873,6.64864865 Z M3.3015873,4.64864865 C2.5858248,4.64864865 2,4.05878945 2,3.32432432 C2,2.5898592 2.5858248,2 3.3015873,2 C4.0173498,2 4.6031746,2.5898592 4.6031746,3.32432432 C4.6031746,4.05878945 4.0173498,4.64864865 3.3015873,4.64864865 Z" id="Oval-Copy"></path>
        </g>
        <g id="Oval-Copy-6" opacity="0.6" transform="translate(13.000000, 102.000000)" fill="#999999">
            <path d="M3.3015873,6.64864865 C5.12500362,6.64864865 6.6031746,5.16029795 6.6031746,3.32432432 C6.6031746,1.4883507 5.12500362,0 3.3015873,0 C1.47817098,0 1.08713039e-12,1.4883507 1.08713039e-12,3.32432432 C1.08713039e-12,5.16029795 1.47817098,6.64864865 3.3015873,6.64864865 Z M3.3015873,4.64864865 C2.5858248,4.64864865 2,4.05878945 2,3.32432432 C2,2.5898592 2.5858248,2 3.3015873,2 C4.0173498,2 4.6031746,2.5898592 4.6031746,3.32432432 C4.6031746,4.05878945 4.0173498,4.64864865 3.3015873,4.64864865 Z" id="Oval-Copy-2"></path>
        </g>
        <g id="Oval-Copy-5" opacity="0.3" transform="translate(133.000000, 24.000000)" fill="#999999">
            <path d="M3.3015873,6.64864865 C5.12500362,6.64864865 6.6031746,5.16029795 6.6031746,3.32432432 C6.6031746,1.4883507 5.12500362,-5.32907052e-15 3.3015873,-5.32907052e-15 C1.47817098,-5.32907052e-15 1.07647224e-12,1.4883507 1.07647224e-12,3.32432432 C1.07647224e-12,5.16029795 1.47817098,6.64864865 3.3015873,6.64864865 Z M3.3015873,4.64864865 C2.5858248,4.64864865 2,4.05878945 2,3.32432432 C2,2.5898592 2.5858248,2 3.3015873,2 C4.0173498,2 4.6031746,2.5898592 4.6031746,3.32432432 C4.6031746,4.05878945 4.0173498,4.64864865 3.3015873,4.64864865 Z" id="Oval-Copy-3"></path>
        </g>
        <g id="Path-2-Copy-3" opacity="0.4" transform="translate(12.000000, 76.000000)" fill="#999999">
            <polygon id="Path" points="5.5 2.5 8 2.5 8 5.5 5.5 5.5 5.5 8 2.5 8 2.5 5.5 0 5.5 0 2.5 2.5 2.5 2.5 0 5.5 0"></polygon>
        </g>
        <g id="Path-Copy-5" opacity="0.3" transform="translate(71.000000, 164.000000)" fill="#999999">
            <polygon id="Path-Copy" points="5.5 2.5 8 2.5 8 5.5 5.5 5.5 5.5 8 2.5 8 2.5 5.5 0 5.5 0 2.5 2.5 2.5 2.5 0 5.5 0"></polygon>
        </g>
        <g id="Path-Copy-4" opacity="0.9" transform="translate(132.000000, 44.000000)" fill="#999999">
            <polygon id="Path-Copy-2" points="5.5 2.5 8 2.5 8 5.5 5.5 5.5 5.5 8 2.5 8 2.5 5.5 0 5.5 0 2.5 2.5 2.5 2.5 0 5.5 0"></polygon>
        </g>
        <g id="Path-Copy-6" opacity="0.9" transform="translate(164.000000, 109.000000)" fill="#999999">
            <polygon id="Path-Copy-2" points="5.5 2.5 8 2.5 8 5.5 5.5 5.5 5.5 8 2.5 8 2.5 5.5 0 5.5 0 2.5 2.5 2.5 2.5 0 5.5 0"></polygon>
        </g>
        <g id="Group" transform="translate(90.000000, 93.000000)">
            <path d="M33.15,0 C51.4582395,0 66.3,14.4612026 66.3,32.3 C66.3,39.8505852 63.6410174,46.7960558 59.1856478,52.2959339 L76.8577164,69.5129942 C78.3807612,70.9969865 78.3807612,73.4030135 76.8577164,74.8870058 C75.3346717,76.3709981 72.8653283,76.3709981 71.3422836,74.8870058 L53.6721427,57.6680671 C48.0275309,62.0091964 40.8992848,64.6 33.15,64.6 C14.8417605,64.6 0,50.1387974 0,32.3 C0,14.4612026 14.8417605,0 33.15,0 Z M33.5070423,5.50724638 C18.642026,5.50724638 6.5915493,17.3425017 6.5915493,31.942029 C6.5915493,46.5415563 18.642026,58.3768116 33.5070423,58.3768116 C48.3720585,58.3768116 60.4225352,46.5415563 60.4225352,31.942029 C60.4225352,17.3425017 48.3720585,5.50724638 33.5070423,5.50724638 Z" id="Combined-Shape" fill="#CCCCCC"></path>
            <path d="M33.5070423,5.50724638 C18.642026,5.50724638 6.5915493,17.3425017 6.5915493,31.942029 C6.5915493,46.5415563 18.642026,58.3768116 33.5070423,58.3768116 C48.3720585,58.3768116 60.4225352,46.5415563 60.4225352,31.942029 C60.4225352,17.3425017 48.3720585,5.50724638 33.5070423,5.50724638 Z" id="Path" fill="#FFFFFF" opacity="0.631696429"></path>
        </g>
    </g>
</svg>